<svg width="333" height="96" viewBox="0 0 333 96" fill="none" xmlns="http://www.w3.org/2000/svg">
<g id="Vector" fill="white" fill-opacity="0.2">
<path d="M9.86239 95.5341H0.700301V67.473H10.1526C12.9256 67.473 15.3071 68.0348 17.2971 69.1583C19.287 70.2727 20.8118 71.8758 21.8712 73.9676C22.9399 76.0503 23.4742 78.5486 23.4742 81.4625C23.4742 84.3855 22.9353 86.8975 21.8574 88.9984C20.7887 91.0993 19.241 92.7162 17.2142 93.8488C15.1874 94.9724 12.7368 95.5341 9.86239 95.5341ZM4.97042 91.8347H9.62747C11.7833 91.8347 13.5751 91.4328 15.0031 90.6289C16.4311 89.816 17.4998 88.6422 18.2092 87.1076C18.9185 85.5639 19.2732 83.6821 19.2732 81.4625C19.2732 79.2611 18.9185 77.3931 18.2092 75.8585C17.509 74.3239 16.4633 73.1592 15.0722 72.3645C13.6811 71.5698 11.9537 71.1725 9.89003 71.1725H4.97042V91.8347Z"/>
<path d="M45.0383 67.473H49.3223V85.9292C49.3223 87.8932 48.857 89.6333 47.9265 91.1496C46.996 92.6568 45.6878 93.8443 44.0019 94.712C42.3159 95.5707 40.3398 96 38.0735 96C35.8163 96 33.8448 95.5707 32.1589 94.712C30.4729 93.8443 29.1647 92.6568 28.2342 91.1496C27.3038 89.6333 26.8385 87.8932 26.8385 85.9292V67.473H31.1086V85.5867C31.1086 86.8564 31.3896 87.9845 31.9516 88.971C32.5228 89.9575 33.3289 90.734 34.3699 91.3003C35.411 91.8575 36.6455 92.1361 38.0735 92.1361C39.5107 92.1361 40.7498 91.8575 41.7908 91.3003C42.8411 90.734 43.6426 89.9575 44.1954 88.971C44.7573 87.9845 45.0383 86.8564 45.0383 85.5867V67.473Z"/>
<path d="M53.5848 95.5341V67.473H63.9491C65.9575 67.473 67.6204 67.8018 68.9378 68.4595C70.2552 69.1081 71.241 69.9896 71.8951 71.104C72.5492 72.2092 72.8763 73.4561 72.8763 74.8445C72.8763 76.0137 72.6598 77.0003 72.2268 77.8041C71.7938 78.5988 71.2134 79.2382 70.4856 79.7224C69.767 80.1973 68.9747 80.5445 68.1087 80.7637V81.0377C69.0484 81.0834 69.965 81.3848 70.8587 81.942C71.7615 82.4901 72.5078 83.2711 73.0974 84.285C73.687 85.299 73.9818 86.5321 73.9818 87.9845C73.9818 89.4186 73.6409 90.7066 72.9592 91.8484C72.2867 92.981 71.2456 93.8808 69.8361 94.5476C68.4265 95.2053 66.6254 95.5341 64.4328 95.5341H53.5848ZM57.8549 91.9032H64.0182C66.0634 91.9032 67.5283 91.5104 68.4127 90.7248C69.2971 89.9393 69.7393 88.9573 69.7393 87.779C69.7393 86.8929 69.5136 86.08 69.0622 85.3401C68.6108 84.6002 67.9659 84.011 67.1275 83.5725C66.2984 83.1341 65.3126 82.9149 64.1702 82.9149H57.8549V91.9032ZM57.8549 79.6127H63.576C64.5341 79.6127 65.3955 79.43 66.1602 79.0647C66.9341 78.6993 67.5467 78.1878 67.9981 77.5301C68.4588 76.8633 68.6891 76.0777 68.6891 75.1734C68.6891 74.0133 68.2791 73.0405 67.4592 72.2549C66.6392 71.4693 65.3817 71.0766 63.6866 71.0766H57.8549V79.6127Z"/>
<path d="M79.4915 95.5341H74.9588L85.1435 67.473H90.077L100.262 95.5341H95.729L87.7277 72.57H87.5066L79.4915 95.5341ZM80.2516 84.5454H94.9551V88.1078H80.2516V84.5454Z"/>
<path d="M106.673 67.473V95.5341H102.403V67.473H106.673Z"/>
<path d="M124.84 95.5341L116.991 67.473H121.482L126.996 89.2039H127.259L132.994 67.473H137.443L143.178 89.2176H143.441L148.941 67.473H153.446L145.583 95.5341H141.285L135.329 74.5157H135.108L129.152 95.5341H124.84Z"/>
<path d="M159.664 67.473V95.5341H155.394V67.473H159.664Z"/>
<path d="M186.78 67.473V95.5341H182.855L168.469 74.9542H168.207V95.5341H163.937V67.473H167.889L182.289 88.0804H182.551V67.473H186.78Z"/>
<path d="M200.225 95.5341H191.063V67.473H200.515C203.288 67.473 205.67 68.0348 207.66 69.1583C209.65 70.2727 211.175 71.8758 212.234 73.9676C213.303 76.0503 213.837 78.5486 213.837 81.4625C213.837 84.3855 213.298 86.8975 212.22 88.9984C211.152 91.0993 209.604 92.7162 207.577 93.8488C205.55 94.9724 203.1 95.5341 200.225 95.5341ZM195.333 91.8347H199.99C202.146 91.8347 203.938 91.4328 205.366 90.6289C206.794 89.816 207.863 88.6422 208.572 87.1076C209.281 85.5639 209.636 83.6821 209.636 81.4625C209.636 79.2611 209.281 77.3931 208.572 75.8585C207.872 74.3239 206.826 73.1592 205.435 72.3645C204.044 71.5698 202.316 71.1725 200.253 71.1725H195.333V91.8347Z"/>
<path d="M28.152 1.58746V48.6821H19.146L8.73913 21.0338V48.6821H0V1.58746H9.00597C12.5417 10.7815 16.0106 19.9755 19.4796 29.1696V1.58746H28.152Z"/>
<path d="M32.851 25.0686C32.851 11.3106 44.2585 0 58.2011 0C72.2104 0 83.618 11.3106 83.618 25.0686C83.618 39.025 72.2104 50.2695 58.2011 50.2695C44.2585 50.2695 32.851 39.025 32.851 25.0686ZM74.612 25.0686C74.612 16.2053 67.2738 8.92946 58.2011 8.92946C49.2618 8.92946 41.8569 16.2053 41.8569 25.0686C41.8569 34.0642 49.2618 41.4062 58.2011 41.4062C67.2738 41.4062 74.612 34.0642 74.612 25.0686Z"/>
<path d="M94.3704 48.6821L83.8968 1.58746H93.0362C95.1042 11.9721 97.239 22.4229 99.3737 32.8075L105.711 1.58746H114.784L104.377 48.6821H94.3704Z"/>
<path d="M110.086 48.6821L121.627 1.58746H130.299L141.907 48.6821H132.901L131.9 44.3827H120.026L119.025 48.6821H110.086ZM122.027 35.784H129.966L125.963 16.9329L122.027 35.784Z"/>
<path d="M145.213 48.6821V1.58746H155.287L162.959 33.0059L170.63 1.58746H180.77V48.6821H172.165V22.1583C172.165 22.1583 166.895 46.1024 166.361 48.6821H159.556C159.089 46.1024 153.752 22.1583 153.752 22.1583V48.6821H145.213Z"/>
<path d="M184.159 48.6821L195.7 1.58746H204.372L215.98 48.6821H206.974L205.973 44.3827H194.099L193.098 48.6821H184.159ZM196.1 35.784H204.038L200.036 16.9329L196.1 35.784Z"/>
<path d="M251.402 29.5003V20.7031H266.412C266.679 22.0921 266.812 23.6134 266.812 25.0686C266.812 39.025 255.405 50.2695 241.395 50.2695C227.453 50.2695 216.045 39.025 216.045 25.0686C216.045 11.3106 227.453 0 241.395 0C247.866 0 253.67 2.38119 258.207 6.28369L252.336 13.0304C249.401 10.5169 245.598 8.92946 241.395 8.92946C232.456 8.92946 225.051 16.2053 225.051 25.0686C225.051 34.0642 232.456 41.4062 241.395 41.4062C249.001 41.4062 255.338 36.3793 257.273 29.5003H251.402Z"/>
<path d="M271.404 48.6821V1.58746H280.41V48.6821H271.404Z"/>
<path d="M324.995 32.5429L333 36.71C328.797 44.7796 320.392 50.2695 310.452 50.2695C296.509 50.2695 285.102 39.025 285.102 25.0686C285.102 11.3106 296.509 0 310.452 0C320.325 0 328.864 5.55611 333 13.6257L324.995 17.6605C322.326 12.5012 316.856 8.92946 310.452 8.92946C301.512 8.92946 294.108 16.2053 294.108 25.0686C294.108 34.0642 301.512 41.4062 310.452 41.4062C316.856 41.4062 322.26 37.7683 324.995 32.5429Z"/>
</g>
</svg>
