<svg width="222" height="30" viewBox="0 0 222 30" fill="none" xmlns="http://www.w3.org/2000/svg">
<g id="dubai wind">
<path d="M0 29.4V0H8.988C17.556 0 23.226 5.964 23.226 14.658C23.226 23.478 17.556 29.4 8.988 29.4H0ZM2.352 27.174H8.904C16.212 27.174 20.916 22.26 20.916 14.658C20.916 7.14 16.212 2.226 8.904 2.226H2.352V27.174Z" fill="#FED79F" fill-opacity="0.2"/>
<path d="M38.3299 29.862C32.5339 29.862 28.5019 25.746 28.5019 19.74V0H30.8539V19.656C30.8539 24.444 33.8359 27.678 38.3299 27.678C42.7819 27.678 45.8059 24.444 45.8059 19.656V0H48.1579V19.74C48.1579 25.746 44.1259 29.862 38.3299 29.862Z" fill="#FED79F" fill-opacity="0.2"/>
<path d="M55.207 29.4V0H63.859C68.773 0 72.469 3.15 72.469 7.434C72.469 10.458 70.705 12.978 67.471 13.944C71.167 14.994 73.225 17.892 73.225 21.294C73.225 25.956 69.151 29.4 63.649 29.4H55.207ZM57.559 27.258H63.397C67.765 27.258 70.915 24.78 70.915 21.126C70.915 17.556 67.933 15.036 63.733 15.036H57.559V27.258ZM57.559 12.978H63.775C67.597 12.978 70.243 10.71 70.243 7.602C70.243 4.326 67.471 2.142 63.607 2.142H57.559V12.978Z" fill="#FED79F" fill-opacity="0.2"/>
<path d="M75.8431 29.4L86.6791 0H88.9891L99.8251 29.4H97.3891L94.7431 22.008H80.9251L78.2791 29.4H75.8431ZM81.6811 19.866H93.9871L87.8551 2.688L81.6811 19.866Z" fill="#FED79F" fill-opacity="0.2"/>
<path d="M103.77 29.4V0H106.122V29.4H103.77Z" fill="#FED79F" fill-opacity="0.2"/>
<path d="M154.782 0H157.218L148.986 29.4H146.718L142.392 15.498L139.074 4.788L135.798 15.54L131.472 29.4H129.246L120.93 0H123.366L127.356 14.196L130.422 25.746L133.95 14.154L138.15 0.714001H140.04L147.852 25.788L150.834 14.196L154.782 0Z" fill="#FED79F" fill-opacity="0.2"/>
<path d="M161.684 29.4V0H164.036V29.4H161.684Z" fill="#FED79F" fill-opacity="0.2"/>
<path d="M171.24 29.4V0H173.382L188.712 24.612V0H191.064V29.4H188.922L173.592 4.746V29.4H171.24Z" fill="#FED79F" fill-opacity="0.2"/>
<path d="M198.27 29.4V0H207.258C215.826 0 221.496 5.964 221.496 14.658C221.496 23.478 215.826 29.4 207.258 29.4H198.27ZM200.622 27.174H207.174C214.482 27.174 219.186 22.26 219.186 14.658C219.186 7.14 214.482 2.226 207.174 2.226H200.622V27.174Z" fill="#FED79F" fill-opacity="0.2"/>
</g>
</svg>
