<svg width="465" height="63" viewBox="0 0 465 63" fill="none" xmlns="http://www.w3.org/2000/svg">
<g id="dubai wind">
<path d="M0 62.0253V0H18.8691C36.8565 0 48.7599 12.5823 48.7599 30.9241C48.7599 49.5316 36.8565 62.0253 18.8691 62.0253H0ZM4.93771 57.3291H18.6927C34.0349 57.3291 43.9103 46.962 43.9103 30.9241C43.9103 15.0633 34.0349 4.6962 18.6927 4.6962H4.93771V57.3291Z" fill="#105F22"/>
<path d="M80.4685 63C68.3006 63 59.8359 54.3165 59.8359 41.6456V0H64.7737V41.4684C64.7737 51.5696 71.034 58.3924 80.4685 58.3924C89.8149 58.3924 96.1634 51.5696 96.1634 41.4684V0H101.101V41.6456C101.101 54.3165 92.6364 63 80.4685 63Z" fill="#105F22"/>
<path d="M115.9 62.0253V0H134.063C144.38 0 152.139 6.64557 152.139 15.6835C152.139 22.0633 148.436 27.3797 141.646 29.4177C149.406 31.6329 153.726 37.7468 153.726 44.9241C153.726 54.7595 145.173 62.0253 133.623 62.0253H115.9ZM120.837 57.5063H133.094C142.264 57.5063 148.877 52.2785 148.877 44.5696C148.877 37.038 142.616 31.7215 133.799 31.7215H120.837V57.5063ZM120.837 27.3797H133.887C141.911 27.3797 147.466 22.5949 147.466 16.038C147.466 9.12659 141.646 4.51899 133.534 4.51899H120.837V27.3797Z" fill="#105F22"/>
<path d="M159.222 62.0253L181.971 0H186.821L209.569 62.0253H204.455L198.9 46.4304H169.891L164.337 62.0253H159.222ZM171.479 41.9114H197.313L184.44 5.67089L171.479 41.9114Z" fill="#105F22"/>
<path d="M217.85 62.0253V0H222.788V62.0253H217.85Z" fill="#105F22"/>
<path d="M324.944 0H330.058L312.776 62.0253H308.015L298.933 32.6962L291.967 10.1013L285.09 32.7848L276.008 62.0253H271.335L253.877 0H258.991L267.367 29.9494L273.804 54.3165L281.21 29.8608L290.028 1.50633H293.995L310.396 54.4051L316.656 29.9494L324.944 0Z" fill="#105F22"/>
<path d="M339.433 62.0253V0H344.371V62.0253H339.433Z" fill="#105F22"/>
<path d="M359.496 62.0253V0H363.993L396.176 51.924V0H401.114V62.0253H396.617L364.434 10.0127V62.0253H359.496Z" fill="#105F22"/>
<path d="M416.24 62.0253V0H435.109C453.097 0 465 12.5823 465 30.9241C465 49.5316 453.097 62.0253 435.109 62.0253H416.24ZM421.178 57.3291H434.933C450.275 57.3291 460.15 46.962 460.15 30.9241C460.15 15.0633 450.275 4.6962 434.933 4.6962H421.178V57.3291Z" fill="#105F22"/>
</g>
</svg>
