<svg width="147" height="24" viewBox="0 0 147 24" fill="none" xmlns="http://www.w3.org/2000/svg">
<g id="NOVAMAGIC">
<path d="M0 23.2421V0.757896H3.2206L9.11491 16.4211V0.757896H12.0013V23.2421H8.7807L2.91677 7.48421V23.2421H0Z" fill="#105F22"/>
<path d="M25.7902 24C19.4402 24 14.275 18.6316 14.275 11.9684C14.275 5.4 19.4402 0 25.7902 0C32.201 0 37.3661 5.4 37.3661 11.9684C37.3661 18.6316 32.201 24 25.7902 24ZM25.7902 20.9368C30.5603 20.9368 34.419 16.9263 34.419 11.9684C34.419 7.07369 30.5603 3.06316 25.7902 3.06316C21.0808 3.06316 17.2222 7.07369 17.2222 11.9684C17.2222 16.9263 21.0808 20.9368 25.7902 20.9368Z" fill="#105F22"/>
<path d="M42.4463 23.2421L37.4939 0.757896H40.5929L44.1477 17.6211L47.7633 0.757896H50.8016L45.91 23.2421H42.4463Z" fill="#105F22"/>
<path d="M48.6798 23.2421L54.0272 0.757896H56.9136L62.261 23.2421H59.1923L58.615 20.7789H52.265L51.6877 23.2421H48.6798ZM53.055 17.6842H57.8858L55.4552 6.53684L53.055 17.6842Z" fill="#105F22"/>
<path d="M63.9705 23.2421V0.757896H67.6469L71.5359 18.0632L75.4553 0.757896H79.1924V23.2421H76.2453V8.17895L72.9943 23.2421H70.1079L66.8873 8.17895V23.2421H63.9705Z" fill="#105F22"/>
<path d="M80.9024 23.2421L86.2498 0.757896H89.1362L94.4836 23.2421H91.415L90.8377 20.7789H84.4876L83.9103 23.2421H80.9024ZM85.2776 17.6842H90.1085L87.6778 6.53684L85.2776 17.6842Z" fill="#105F22"/>
<path d="M112.187 13.5158V10.4526H117.565C117.626 10.9263 117.626 11.4947 117.626 11.9684C117.626 18.6316 112.431 24 106.05 24C99.7 24 94.5349 18.6316 94.5349 11.9684C94.5349 5.4 99.7 0 106.05 0C109.18 0 111.975 1.26316 114.071 3.34737L112.036 5.5579C110.486 4.01053 108.359 3.06316 106.05 3.06316C101.341 3.06316 97.4821 7.07369 97.4821 11.9684C97.4821 16.9263 101.341 20.9368 106.05 20.9368C110.334 20.9368 113.859 17.6842 114.557 13.5158H112.187Z" fill="#105F22"/>
<path d="M119.9 23.2421V0.757896H122.908V23.2421H119.9Z" fill="#105F22"/>
<path d="M144.357 15.9789L147 17.3684C145.116 21.3158 141.258 24 136.7 24C130.35 24 125.185 18.6316 125.185 11.9684C125.185 5.4 130.35 0 136.7 0C141.258 0 145.177 2.68421 147 6.6L144.357 7.9579C142.989 5.05263 140.103 3.06316 136.7 3.06316C131.991 3.06316 128.132 7.07369 128.132 11.9684C128.132 16.9263 131.991 20.9368 136.7 20.9368C140.103 20.9368 142.929 18.9158 144.357 15.9789Z" fill="#105F22"/>
</g>
</svg>
