<svg width="1828" height="288" viewBox="0 0 1828 288" fill="none" xmlns="http://www.w3.org/2000/svg">
<g id="NOVAMAGIC">
<path d="M0 278.905V9.09476H40.0494L113.347 197.053V9.09476H149.241V278.905H109.191L36.2711 89.8105V278.905H0Z" fill="#105F22"/>
<path d="M320.711 288C241.746 288 177.515 223.579 177.515 143.621C177.515 64.8 241.746 0 320.711 0C400.432 0 464.662 64.8 464.662 143.621C464.662 223.579 400.432 288 320.711 288ZM320.711 251.242C380.029 251.242 428.013 203.116 428.013 143.621C428.013 84.8842 380.029 36.7579 320.711 36.7579C262.148 36.7579 214.164 84.8842 214.164 143.621C214.164 203.116 262.148 251.242 320.711 251.242Z" fill="#105F22"/>
<path d="M527.835 278.905L466.25 9.09476H504.788L548.994 211.453L593.955 9.09476H631.737L570.907 278.905H527.835Z" fill="#105F22"/>
<path d="M605.351 278.905L671.848 9.09476H707.742L774.239 278.905H736.079L728.9 249.347H649.935L642.756 278.905H605.351ZM659.758 212.211H719.832L689.606 78.4421L659.758 212.211Z" fill="#105F22"/>
<path d="M795.497 278.905V9.09476H841.214L889.576 216.758L938.315 9.09476H984.787V278.905H948.138V98.1474L907.711 278.905H871.818L831.768 98.1474V278.905H795.497Z" fill="#105F22"/>
<path d="M1006.05 278.905L1072.55 9.09476H1108.44L1174.94 278.905H1136.78L1129.6 249.347H1050.64L1043.46 278.905H1006.05ZM1060.46 212.211H1120.53L1090.31 78.4421L1060.46 212.211Z" fill="#105F22"/>
<path d="M1395.09 162.189V125.432H1461.97C1462.72 131.116 1462.72 137.937 1462.72 143.621C1462.72 223.579 1398.12 288 1318.77 288C1239.81 288 1175.58 223.579 1175.58 143.621C1175.58 64.8 1239.81 0 1318.77 0C1357.69 0 1392.45 15.1579 1418.52 40.1684L1393.2 66.6948C1373.93 48.1263 1347.49 36.7579 1318.77 36.7579C1260.21 36.7579 1212.23 84.8842 1212.23 143.621C1212.23 203.116 1260.21 251.242 1318.77 251.242C1372.05 251.242 1415.87 212.211 1424.56 162.189H1395.09Z" fill="#105F22"/>
<path d="M1491 278.905V9.09476H1528.41V278.905H1491Z" fill="#105F22"/>
<path d="M1795.13 191.747L1828 208.421C1804.57 255.789 1756.59 288 1699.92 288C1620.95 288 1556.72 223.579 1556.72 143.621C1556.72 64.8 1620.95 0 1699.92 0C1756.59 0 1805.33 32.2105 1828 79.2L1795.13 95.4948C1778.13 60.6316 1742.23 36.7579 1699.92 36.7579C1641.35 36.7579 1593.37 84.8842 1593.37 143.621C1593.37 203.116 1641.35 251.242 1699.92 251.242C1742.23 251.242 1777.37 226.989 1795.13 191.747Z" fill="#105F22"/>
</g>
</svg>
